<svg height="512pt" viewBox="0 0 512 512.00002" width="512pt" xmlns="http://www.w3.org/2000/svg"><path d="m460.640625 90.152344c-34.1875 0-64.054687 18.890625-79.804687 46.8125h-249.671876c-15.75-27.921875-45.617187-46.8125-79.804687-46.8125-28.320313 0-51.359375 23.128906-51.359375 51.550781 0 17.847656 14.464844 32.367187 32.246094 32.367187 12.78125 0 23.179687-10.433593 23.179687-23.261718 0-10.445313-8.464843-18.941406-18.871093-18.941406-1.5625 0-3.074219.210937-4.507813.613281 3.445313-7.234375 10.808594-12.246094 19.3125-12.246094 31.621094 0 57.746094 24.015625 61.253906 54.828125l-9.351562 336.9375h304.550781l-8.839844-329.871094c0-34.128906 27.664063-61.894531 61.664063-61.894531 8.507812 0 15.871093 5.011719 19.316406 12.246094-1.4375-.398438-2.945313-.613281-4.507813-.613281-10.40625 0-18.871093 8.496093-18.871093 18.941406 0 12.828125 10.398437 23.265625 23.179687 23.265625 17.78125 0 32.246094-14.519531 32.246094-32.367188 0-28.425781-23.039062-51.554687-51.359375-51.554687zm0 0" fill="#dce1eb"/><g fill="#b6c4cf"><path d="m460.640625 90.152344c-34.1875 0-64.054687 18.890625-79.804687 46.8125h-124.835938v375.035156h151.8125l-8.839844-329.871094c0-34.128906 27.664063-61.894531 61.664063-61.894531 8.507812 0 15.871093 5.011719 19.316406 12.246094-1.4375-.398438-2.945313-.613281-4.507813-.613281-10.40625 0-18.871093 8.496093-18.871093 18.941406 0 12.828125 10.398437 23.265625 23.179687 23.265625 17.78125 0 32.246094-14.519531 32.246094-32.367188 0-28.425781-23.039062-51.554687-51.359375-51.554687zm0 0"/><path d="m240.324219 131.945312h31.863281v380.054688h-31.863281zm0 0"/><path d="m310.941406 137.171875h31.859375v374.828125h-31.859375zm0 0"/><path d="m170.503906 137.171875h31.863282v374.828125h-31.863282zm0 0"/></g><path d="m382.414062 76.800781h-268.738281v75.203125h283.722657v-75.203125zm0 0" fill="#96a3ab"/><path d="m310.941406 137.171875h31.859375v374.828125h-31.859375zm0 0" fill="#96a3ab"/><path d="m256 131.945312h16.183594v380.054688h-16.183594zm0 0" fill="#96a3ab"/><path d="m397.398438 76.800781h-141.398438v75.203125h141.398438zm0 0" fill="#7d898f"/><path d="m435.21875 14.949219h-389.332031v75.203125h419.300781v-75.203125zm0 0" fill="#b6c4cf"/><path d="m465.1875 14.949219h-209.1875v75.203125h209.1875zm0 0" fill="#96a3ab"/><path d="m22.160156 0h466.753906v30.082031h-466.753906zm0 0" fill="#dce1eb"/><path d="m256 0h232.914062v30.082031h-232.914062zm0 0" fill="#b6c4cf"/></svg>