<svg width="185" height="184" viewBox="0 0 185 184" fill="none" xmlns="http://www.w3.org/2000/svg">
<path d="M151.511 7.58499C138.116 1.88498 124.151 1.31499 104.771 0.744998C87.9564 0.459985 46.9164 0.744998 31.5264 1.02999H0.746446V184H31.5264H31.8114V110.185C31.8114 110.185 72.5665 111.04 99.0715 110.47C114.176 110.185 127.286 109.33 138.971 107.335C166.901 102.775 184.001 82.255 184.001 56.89C183.716 32.38 171.176 15.85 151.511 7.58499ZM106.481 85.105C86.8164 85.675 31.5264 85.105 31.5264 85.105V23.83C44.9214 23.83 80.5465 23.545 99.9264 23.545C132.416 23.83 150.086 35.23 150.086 56.035C150.086 75.985 136.691 84.535 106.481 85.105Z" fill="#F4F5F9"/>
</svg>
