<?xml version="1.0" standalone="no"?>
<svg viewBox="0 0 200 200" xmlns="http://www.w3.org/2000/svg">
  <path fill="#F2F4F8" d="M46.8,-62.3C61.8,-53.5,75.9,-41.4,79,-26.9C82.1,-12.3,74.1,4.6,66.4,19.5C58.7,34.4,51.2,47.3,40.2,58.3C29.1,69.3,14.6,78.4,-0.6,79.3C-15.8,80.1,-31.5,72.6,-43.2,61.8C-54.8,50.9,-62.3,36.8,-68.2,21.5C-74.1,6.2,-78.4,-10.3,-73.3,-23.1C-68.2,-35.9,-53.7,-44.9,-39.9,-54C-26.1,-63.2,-13.1,-72.4,1.4,-74.4C15.9,-76.3,31.8,-71,46.8,-62.3Z" transform="translate(100 100)" />
</svg>
