<?xml version="1.0" standalone="no"?>
<svg viewBox="0 0 200 200" xmlns="http://www.w3.org/2000/svg">
  <path fill="#F2F4F8" d="M41.9,-74.5C53.7,-65.7,62.4,-53.3,69.3,-40.3C76.3,-27.3,81.5,-13.7,80.5,-0.6C79.5,12.5,72.2,25,63.3,34.6C54.4,44.2,43.9,51,33,57.3C22.2,63.6,11.1,69.5,-0.3,69.9C-11.6,70.3,-23.2,65.3,-35,59.6C-46.9,53.9,-58.9,47.4,-69,37.4C-79,27.3,-87.1,13.7,-88.4,-0.8C-89.7,-15.2,-84.3,-30.3,-75.3,-42.3C-66.3,-54.2,-53.8,-62.9,-40.7,-71C-27.6,-79.1,-13.8,-86.6,0.6,-87.7C15,-88.7,30,-83.4,41.9,-74.5Z" transform="translate(100 100)" />
</svg>
