<svg class="right-arrow" version="1.1" xmlns="http://www.w3.org/2000/svg" xmlns:xlink="http://www.w3.org/1999/xlink" x="0px" y="0px" viewBox="0 0 36 36" style="enable-background:new 0 0 36 36;" xml:space="preserve">										<path class="arrow-outline outer-color" d="M8.0008001,17.2999992c-0.4000001,0.3999996-0.4000001,1,0,1.3999996l15.7991991,15.7992001											c0.3999996,0.4000015,1,0.4000015,1.3999996,0l2.6992016-2.6991997c0.3999996-0.3999996,0.3999996-1,0-1.3999996											L16.2992001,18.7000008c-0.4000006-0.3999996-0.4000006-1,0-1.3999996L27.8992004,5.6999998											c0.3999996-0.4000001,0.3999996-1,0-1.4000001l-2.6992016-2.6992002c-0.3999996-0.4-1-0.4-1.3999996,0L8.0008001,17.2999992z"></path>										<path class="arrow-shape inner-color" d="M9.6999998,17.6000004c-0.1999998,0.2000008-0.1999998,0.5,0,0.7000008l14.500001,14.5000019											c0.2000008,0.2000008,0.5,0.2000008,0.7000008,0l1.3999996-1.3999996c0.2000008-0.2000008,0.2000008-0.5,0-0.7000008											L13.8999996,18.3999996c-0.1999998-0.2000008-0.1999998-0.5,0-0.7000008L26.2999992,5.3000002											c0.2000008-0.1999998,0.2000008-0.5,0-0.6999998l-1.3999996-1.4000001c-0.2000008-0.2-0.5-0.2-0.7000008,0L9.6999998,17.6000004z"></path>								</svg>