<?xml version="1.0" standalone="no"?><svg xmlns="http://www.w3.org/2000/svg" viewBox="0 0 1440 320"><path fill="#ffffff" fill-opacity="1" d="M0,128L30,117.3C60,107,120,85,180,90.7C240,96,300,128,360,170.7C420,213,480,267,540,256C600,245,660,171,720,138.7C780,107,840,117,900,144C960,171,1020,213,1080,208C1140,203,1200,149,1260,154.7C1320,160,1380,224,1410,256L1440,288L1440,320L1410,320C1380,320,1320,320,1260,320C1200,320,1140,320,1080,320C1020,320,960,320,900,320C840,320,780,320,720,320C660,320,600,320,540,320C480,320,420,320,360,320C300,320,240,320,180,320C120,320,60,320,30,320L0,320Z"></path></svg>