<svg width="19" height="18" viewBox="0 0 19 18" fill="none" xmlns="http://www.w3.org/2000/svg">
<path fill-rule="evenodd" clip-rule="evenodd" d="M9.32296 0C8.78849 0 8.35522 0.433272 8.35522 0.967741V8L1.61328 8C1.061 8 0.613281 8.44771 0.613281 9C0.613281 9.55228 1.06099 10 1.61328 10H8.35522V17.0323C8.35522 17.5667 8.78849 18 9.32296 18C9.85743 18 10.2907 17.5667 10.2907 17.0323V10H17.0326C17.5849 10 18.0326 9.55229 18.0326 9C18.0326 8.44771 17.5849 8 17.0326 8L10.2907 8V0.967741C10.2907 0.433273 9.85743 0 9.32296 0Z" fill="black"/>
</svg>