<?xml version="1.0"?>
<svg xmlns="http://www.w3.org/2000/svg" xmlns:xlink="http://www.w3.org/1999/xlink" version="1.1" id="Layer_1" x="0px" y="0px" viewBox="0 0 469.333 469.333" style="enable-background:new 0 0 469.333 469.333;" xml:space="preserve" width="512px" height="512px"><g><g>
	<g>
		<g>
			<path d="M426.667,0h-384C19.146,0,0,19.135,0,42.667v384c0,23.531,19.146,42.667,42.667,42.667H352     c2.833,0,5.542-1.125,7.542-3.125l106.667-106.667c2-2,3.125-4.708,3.125-7.542V42.667C469.333,19.135,450.188,0,426.667,0z      M362.667,432.917V384c0-11.76,9.563-21.333,21.333-21.333h48.917L362.667,432.917z M448,341.333h-64     c-23.521,0-42.667,19.135-42.667,42.667v64H42.667c-11.771,0-21.333-9.573-21.333-21.333v-384     c0-11.76,9.563-21.333,21.333-21.333h384c11.771,0,21.333,9.573,21.333,21.333V341.333z" data-original="#000000" class="active-path" data-old_color="#000000" fill="#6C63FF"/>
			<path d="M416,128c5.896,0,10.667-4.771,10.667-10.667c0-5.896-4.771-10.667-10.667-10.667H128V53.333     c0-5.896-4.771-10.667-10.667-10.667c-5.896,0-10.667,4.771-10.667,10.667v53.333H53.333c-5.896,0-10.667,4.771-10.667,10.667     c0,5.896,4.771,10.667,10.667,10.667h53.333v96H53.333c-5.896,0-10.667,4.771-10.667,10.667s4.771,10.667,10.667,10.667h53.333     v96H53.333c-5.896,0-10.667,4.771-10.667,10.667c0,5.896,4.771,10.667,10.667,10.667h53.333V416     c0,5.896,4.771,10.667,10.667,10.667c5.896,0,10.667-4.771,10.667-10.667v-53.333h181.333c5.896,0,10.667-4.771,10.667-10.667     c0-5.896-4.771-10.667-10.667-10.667H128v-96h288c5.896,0,10.667-4.771,10.667-10.667S421.896,224,416,224H128v-96H416z" data-original="#000000" class="active-path" data-old_color="#000000" fill="#6C63FF"/>
		</g>
	</g>
</g></g> </svg>
