<?xml version="1.0"?>
<svg xmlns="http://www.w3.org/2000/svg" xmlns:xlink="http://www.w3.org/1999/xlink" version="1.1" id="Capa_1" x="0px" y="0px" viewBox="0 0 511.998 511.998" style="enable-background:new 0 0 511.998 511.998;" xml:space="preserve" width="512px" height="512px"><g><g>
	<g>
		<g>
			<path d="M96,191.999h256c5.896,0,10.667-4.771,10.667-10.667c0-5.896-4.771-10.667-10.667-10.667H96     c-5.896,0-10.667,4.771-10.667,10.667C85.333,187.228,90.104,191.999,96,191.999z" data-original="#000000" class="active-path" data-old_color="#000000" fill="#6C63FF"/>
			<path d="M106.667,341.332c0,5.896,4.771,10.667,10.667,10.667h128c5.896,0,10.667-4.771,10.667-10.667     c0-5.896-4.771-10.667-10.667-10.667h-128C111.437,330.666,106.667,335.436,106.667,341.332z" data-original="#000000" class="active-path" data-old_color="#000000" fill="#6C63FF"/>
			<path d="M490.667,314.666c0-40.542,19.646-74.219,19.833-74.552c1.958-3.302,2-7.396,0.104-10.729     c-1.917-3.323-5.438-5.385-9.271-5.385h-14.901c-5.404-10.865-17.099-37.938-17.099-69.333c0-40.542,19.646-74.219,19.833-74.552     c1.958-3.302,2-7.396,0.104-10.729c-1.917-3.323-5.438-5.385-9.271-5.385H64c-35.292,0-64,28.708-64,64v53.333     c0,27.531,17.564,50.846,42.001,59.862c-12.629,11.698-20.668,28.273-20.668,46.805v53.333c0,35.292,28.708,64,64,64h213.333v32     c0,4.104,2.354,7.833,6.042,9.615c3.708,1.771,8.063,1.26,11.291-1.281l46.667-37.344l46.666,37.344     c1.938,1.542,4.292,2.333,6.667,2.333c1.563,0,3.146-0.344,4.625-1.052c3.688-1.781,6.042-5.51,6.042-9.615v-32h74.667     c3.833,0,7.354-2.063,9.271-5.385c1.896-3.333,1.854-7.427-0.104-10.729C510.313,388.884,490.667,355.207,490.667,314.666z      M21.333,181.332v-53.333c0-23.531,19.146-42.667,42.667-42.667h398.917c-3.503,8.204-7.401,19.259-10.37,32H160     c-5.896,0-10.667,4.771-10.667,10.667c0,5.896,4.771,10.667,10.667,10.667h289.081c-0.546,5.223-1.081,10.473-1.081,16     c0,28.688,8.313,53.865,14.917,69.333H64C40.479,223.999,21.333,204.864,21.333,181.332z M405.333,415.134l-36-28.802     c-3.916-3.104-9.416-3.104-13.333,0l-36,28.802V298.666h85.333V415.134z M426.667,383.999v-85.333h43.747     c-0.546,5.223-1.081,10.473-1.081,16c0,28.688,8.313,53.865,14.917,69.333H426.667z M473.88,277.332H181.333     c-5.896,0-10.667,4.771-10.667,10.667s4.771,10.667,10.667,10.667h117.333v85.333H85.333c-23.521,0-42.667-19.135-42.667-42.667     v-53.333c0-23.531,19.146-42.667,42.667-42.667H480h4.25C480.747,253.537,476.849,264.591,473.88,277.332z" data-original="#000000" class="active-path" data-old_color="#000000" fill="#6C63FF"/>
		</g>
	</g>
</g></g> </svg>
