<?xml version="1.0"?>
<svg xmlns="http://www.w3.org/2000/svg" xmlns:xlink="http://www.w3.org/1999/xlink" version="1.1" id="Layer_1" x="0px" y="0px" viewBox="0 0 469.336 469.336" style="enable-background:new 0 0 469.336 469.336;" xml:space="preserve" width="512px" height="512px"><g><g>
	<g>
		<path d="M459.951,137.147L331.972,9.083c-12.063-12.112-33.219-12.102-45.26-0.01l-42.656,42.684    c-6.052,6.035-9.385,14.082-9.385,22.65c0,8.568,3.333,16.615,9.375,22.64l1.279,1.279c-25.742,17.781-82.48,50.797-149.32,50.797    c-4.76,0-8.948,3.158-10.26,7.745L0.409,455.732c-1.063,3.721-0.021,7.734,2.719,10.476c2.031,2.033,4.75,3.127,7.542,3.127    c0.979,0,1.969-0.135,2.927-0.407l298.667-85.39c4.583-1.313,7.74-5.504,7.74-10.267c0-66.884,32.993-123.66,50.763-149.419    l1.268,1.269c6.031,6.056,14.073,9.392,22.635,9.392s16.604-3.336,22.625-9.381l42.656-42.684    c6.052-6.035,9.385-14.082,9.385-22.65C469.336,151.229,466.003,143.182,459.951,137.147z M298.815,365.251L47.317,437.104    l123.147-123.147c6.345,3.746,13.65,6.044,21.539,6.044c23.531,0,42.667-19.135,42.667-42.667s-19.135-42.667-42.667-42.667    s-42.667,19.135-42.667,42.667c0,7.889,2.298,15.194,6.044,21.539L32.233,422.021l71.853-251.499    c72.027-2.594,131.564-38.892,156.555-56.633l94.807,94.807C337.707,233.688,301.409,293.224,298.815,365.251z M170.67,277.335    c0-11.76,9.573-21.333,21.333-21.333c11.76,0,21.333,9.573,21.333,21.333c0,11.76-9.573,21.333-21.333,21.333    C180.243,298.668,170.67,289.095,170.67,277.335z M444.878,167.543l-42.677,42.677c-4,4.021-11.052,4.031-15.073-0.01    l-128.01-128.01c-2.01-2-3.115-4.677-3.115-7.531s1.104-5.531,3.125-7.542l42.677-42.677c2-2.01,4.677-3.115,7.531-3.115    c2.854,0,5.531,1.104,7.542,3.125l128,128l0.01,0.01c2.01,2,3.115,4.677,3.115,7.531    C448.003,162.856,446.899,165.533,444.878,167.543z" data-original="#000000" class="active-path" data-old_color="#000000" fill="#6C63FF"/>
	</g>
</g></g> </svg>
