<?xml version="1.0"?>
<svg xmlns="http://www.w3.org/2000/svg" height="512px" viewBox="0 -43 512.00314 512" width="512px" class="hovered-paths"><g transform="matrix(-0.9998, 2.4488e-16, 2.4488e-16, 0.9998, 511.952, 0.0425978)"><path d="m486.972656 3.054688c-.382812-.050782-.765625-.082032-1.152344-.09375l-86.136718-1.707032c-34.316406-1.875-68.714844-1.644531-103.003906.691406l-86.136719 5.914063c-8.578125.886719-16.28125 5.632813-20.933594 12.894531-27.585937 42.308594-97.882813 115.402344-178.804687 173.226563-6.777344 4.753906-10.80859425 12.515625-10.804688 20.796875v194.832031c.015625 6.820313 4.09375 12.976563 10.367188 15.65625 6.273437 2.679687 13.539062 1.363281 18.476562-3.34375 30.589844-29.292969 56.738281-59.519531 74.042969-79.523437 7.339843-8.488282 13.148437-15.195313 16.777343-18.933594 1.5-1.574219 3.558594-2.496094 5.734376-2.558594 25.101562-.863281 49.472656-8.695312 70.382812-22.613281 3.527344-2.296875 6.859375-4.882813 9.957031-7.734375 31.882813-5.042969 53.027344-9.480469 65.125-12.335938 17.722657-4.058594 32.6875-15.859375 40.765625-32.148437l14.078125-28.160157c.414063-.890624.777344-1.804687 1.09375-2.738281 17.90625-6.273437 33.347657-18.089843 44.082031-33.730469 5.230469-9.160156 6.023438-20.195312 2.152344-30.003906l9.386719-11.828125c7.175781-9.027343 10.121094-20.710937 8.078125-32.0625-2.046875-11.351562-8.878906-21.277343-18.753906-27.234375l-5.855469-3.507812h99.722656c12.148438.683594 24.035157-3.703125 32.828125-12.113282 8.792969-8.410156 13.703125-20.09375 13.558594-32.261718.089844-14.640625-10.558594-27.140625-25.027344-29.378906zm-21.359375 56.6875h-128.179687l-22.1875-13.296876c-2.613282-1.566406-5.867188-1.621093-8.53125-.140624-2.664063 1.476562-4.339844 4.269531-4.390625 7.316406s1.527343 5.890625 4.140625 7.460937l56.449218 33.851563c5.664063 3.433594 9.582032 9.132812 10.753907 15.652344 1.171875 6.519531-.511719 13.230468-4.625 18.421874l-6.878907 8.644532-84.832031-59.445313c-2.484375-1.933593-5.835937-2.34375-8.714843-1.058593-2.878907 1.28125-4.816407 4.046874-5.039063 7.191406-.222656 3.144531 1.308594 6.152344 3.976563 7.828125l86.757812 60.742187c4.746094 5.441406 5.550781 13.28125 2.015625 19.574219-7.226563 10.453125-17.183594 18.714844-28.785156 23.894531-1.367188-4.730468-3.902344-9.039062-7.371094-12.527344l-52.175781-52.226562c-2.140625-2.214844-5.3125-3.105469-8.296875-2.324219s-5.3125 3.109375-6.09375 6.09375.109375 6.15625 2.328125 8.296875l52.164062 52.226563c3.777344 3.800781 4.714844 9.585937 2.328125 14.386719l-14.070312 28.160156c-5.8125 11.734375-16.589844 20.234375-29.355469 23.160156-9.558594 2.261719-24.890625 5.519531-46.839844 9.292969 3.097656-6.875 4.929688-14.253907 5.402344-21.777344l13.167969-13.183594c3.152343-3.214843 5.542969-7.101562 6.988281-11.367187 8.632812-2.90625 17.632812-4.585938 26.734375-4.992188 4.710937 0 8.53125-3.820312 8.53125-8.535156 0-4.710938-3.820313-8.53125-8.53125-8.53125-8.902344.304688-17.738281 1.679688-26.308594 4.101562l-7.363281-29.132812c-.730469-2.972656-3-5.328125-5.945312-6.167969-2.945313-.839843-6.113282-.039062-8.304688 2.097657-2.191406 2.140624-3.066406 5.289062-2.296875 8.253906l7.679687 30.351562c1.050782 4.261719-.199218 8.765625-3.304687 11.871094l-4.265625 4.265625c-1.0625-2.261719-2.460938-4.347656-4.144531-6.195313-3.25-3.25-8.5-3.292968-11.804688-.101562-3.347656 3.195312-3.585937 8.460938-.546875 11.945312 2.292969 3.277344 3.304688 7.277344 2.84375 11.25.097656 16.023438-8.382812 30.878907-22.230468 38.945313-18.234376 12.199219-39.511719 19.070313-61.4375 19.847656-6.652344.136719-12.980469 2.898438-17.605469 7.679688-3.992188 4.089843-9.933594 10.964843-17.46875 19.628906-17.066407 19.8125-42.894531 49.679687-72.882813 78.4375v-194.832031c-.023437-2.75 1.320313-5.332032 3.585938-6.886719 82.710937-59.078125 154.800781-134.171875 183.292968-177.929687 1.804688-2.835938 4.78125-4.710938 8.117188-5.121094l85.75-5.84375c33.691406-2.3125 67.488281-2.535156 101.207031-.675782l85.777344 1.707032c5.921875 1.160156 10.183594 6.371094 10.136719 12.40625.035156 7.613281-3.109375 14.890625-8.679688 20.078125-5.570312 5.183593-13.054687 7.808593-20.640625 7.230469zm0 0" data-original="#000000" class="active-path" data-old_color="#000000" fill="#E4E5E7"/><path d="m181.324219 89.402344c-2.707031 3.074218-5.511719 6.203125-8.414063 9.386718-3.183594 3.476563-2.953125 8.875.519532 12.058594 3.476562 3.1875 8.875 2.953125 12.058593-.519531 2.988281-3.25 5.871094-6.464844 8.652344-9.644531 2.175781-2.261719 2.929687-5.535156 1.972656-8.519532-.960937-2.988281-3.484375-5.207031-6.570312-5.78125-3.082031-.570312-6.234375.59375-8.199219 3.039063zm0 0" data-original="#000000" class="active-path" data-old_color="#000000" fill="#E4E5E7"/><path d="m147.625 125.148438c-34.675781 34.484374-72.058594 66.136718-111.785156 94.660156-3.695313 2.785156-4.496094 8.011718-1.808594 11.777344 2.691406 3.765624 7.890625 4.699218 11.722656 2.109374 40.453125-29.0625 78.515625-61.3125 113.820313-96.445312 3.242187-3.339844 3.214843-8.664062-.070313-11.964844-3.28125-3.300781-8.605468-3.359375-11.960937-.136718zm0 0" data-original="#000000" class="active-path" data-old_color="#000000" fill="#E4E5E7"/></g> </svg>
